<?xml version="1.0" encoding="UTF-8"?>
<svg width="184px" height="184px" viewBox="0 0 184 184" version="1.1" xmlns="http://www.w3.org/2000/svg" xmlns:xlink="http://www.w3.org/1999/xlink">
    <!-- Generator: Sketch 51.2 (57519) - http://www.bohemiancoding.com/sketch -->
    <title>Group 2</title>
    <desc>Created with Sketch.</desc>
    <defs></defs>
    <g id="Page-1" stroke="none" stroke-width="1" fill="none" fill-rule="evenodd">
        <g id="Desktop-Copy" transform="translate(-533.000000, -637.000000)">
            <g id="Group-2" transform="translate(533.000000, 637.000000)">
                <circle id="Oval" fill-opacity="0.87" fill="#000000" fill-rule="nonzero" cx="92" cy="92" r="92"></circle>
                <path d="M42,133.497725 L55.9672389,119.686659 C66.21975,127.384724 79.5087671,132.525398 93.6550291,132.525398 C109.3643,132.525398 117.678542,126.751849 117.678542,118.866798 C117.678542,108.81271 108.434757,106.120114 95.2559081,101.47711 L76.6960399,94.7341112 C62.5119077,90.1198747 47.8733324,81.3574282 47.8733324,64.8077385 C47.8733324,46.8513395 67.2215904,33 94.7842512,33 C111.343881,33 130.416719,38.3794403 141.467949,47.3633932 L129.194543,60.1014474 C120.009284,53.9884471 107.226352,50.4616055 93.6343726,50.4616055 C80.8170123,50.4616055 72.1791512,55.2829648 72.1791512,63.6254123 C72.1791512,72.4108725 82.9584031,75.6183997 95.2077096,79.5422267 L112.924104,85.9860482 C130.106872,91.5093237 142.266667,100.081908 142.266667,116.381324 C142.266667,134.708818 123.785982,149.984127 92.2228448,149.984127 C73.2257474,149.984127 55.2477041,143.934414 42,133.497725 Z" id="Stroke-1" stroke="#231916" stroke-width="2.13333333" fill="#FFFFFF"></path>
            </g>
        </g>
    </g>
</svg>